<mxfile host="app.diagrams.net" modified="2024-05-12T17:36:17.900Z" agent="Mozilla/5.0 (Windows NT 10.0; Win64; x64) AppleWebKit/537.36 (KHTML, like Gecko) Chrome/124.0.0.0 Safari/537.36" etag="5EVVz2bTEcRIsuPjp9gU" version="24.4.0" type="github">
  <diagram name="Page-1" id="qMxJpvpj7_H12InIcWU-">
    <mxGraphModel dx="2074" dy="1106" grid="1" gridSize="10" guides="1" tooltips="1" connect="1" arrows="1" fold="1" page="1" pageScale="1" pageWidth="850" pageHeight="1100" math="0" shadow="0">
      <root>
        <mxCell id="0" />
        <mxCell id="1" parent="0" />
        <mxCell id="oFTy_eE11pHR6PuAk6cI-17" value="User" style="swimlane;whiteSpace=wrap;html=1;fillColor=#e1d5e7;strokeColor=#9673a6;" parent="1" vertex="1">
          <mxGeometry x="420" y="610" width="200" height="100" as="geometry" />
        </mxCell>
        <mxCell id="oFTy_eE11pHR6PuAk6cI-22" value="+ Id: int&lt;div&gt;+ Username: string&lt;/div&gt;&lt;div&gt;+ Password: string&lt;/div&gt;&lt;div&gt;+ Type: UserType&lt;/div&gt;" style="text;html=1;align=left;verticalAlign=middle;whiteSpace=wrap;rounded=0;" parent="oFTy_eE11pHR6PuAk6cI-17" vertex="1">
          <mxGeometry x="10" y="25" width="180" height="70" as="geometry" />
        </mxCell>
        <mxCell id="oFTy_eE11pHR6PuAk6cI-18" value="UserType" style="swimlane;whiteSpace=wrap;html=1;fillColor=#fad7ac;strokeColor=#b46504;" parent="1" vertex="1">
          <mxGeometry x="580" y="40" width="120" height="110" as="geometry">
            <mxRectangle x="610" y="30" width="90" height="30" as="alternateBounds" />
          </mxGeometry>
        </mxCell>
        <mxCell id="oFTy_eE11pHR6PuAk6cI-23" value="&lt;ul&gt;&lt;li style=&quot;&quot;&gt;host&lt;/li&gt;&lt;li style=&quot;&quot;&gt;tourist&lt;/li&gt;&lt;li style=&quot;&quot;&gt;guest&lt;/li&gt;&lt;li style=&quot;&quot;&gt;&lt;span style=&quot;background-color: initial;&quot;&gt;guide&lt;/span&gt;&lt;/li&gt;&lt;/ul&gt;" style="text;html=1;align=left;verticalAlign=middle;whiteSpace=wrap;rounded=0;" parent="oFTy_eE11pHR6PuAk6cI-18" vertex="1">
          <mxGeometry y="29" width="73" height="70" as="geometry" />
        </mxCell>
        <mxCell id="yB7MZX--S5__9EGFR-4e-43" style="edgeStyle=orthogonalEdgeStyle;rounded=0;orthogonalLoop=1;jettySize=auto;html=1;exitX=0.5;exitY=0;exitDx=0;exitDy=0;fillColor=#dae8fc;strokeColor=#6c8ebf;endArrow=diamondThin;endFill=1;strokeWidth=1;startArrow=classic;startFill=1;" parent="1" source="oFTy_eE11pHR6PuAk6cI-19" edge="1">
          <mxGeometry relative="1" as="geometry">
            <mxPoint x="280" y="120" as="targetPoint" />
            <Array as="points">
              <mxPoint x="140" y="150" />
              <mxPoint x="240" y="150" />
              <mxPoint x="240" y="120" />
            </Array>
          </mxGeometry>
        </mxCell>
        <mxCell id="yB7MZX--S5__9EGFR-4e-79" style="edgeStyle=orthogonalEdgeStyle;rounded=0;orthogonalLoop=1;jettySize=auto;html=1;exitX=0.25;exitY=1;exitDx=0;exitDy=0;entryX=1;entryY=0.5;entryDx=0;entryDy=0;fillColor=#dae8fc;strokeColor=#6c8ebf;" parent="1" source="oFTy_eE11pHR6PuAk6cI-19" target="yB7MZX--S5__9EGFR-4e-61" edge="1">
          <mxGeometry relative="1" as="geometry">
            <Array as="points">
              <mxPoint x="90" y="920" />
              <mxPoint x="1290" y="920" />
              <mxPoint x="1290" y="360" />
            </Array>
          </mxGeometry>
        </mxCell>
        <mxCell id="oFTy_eE11pHR6PuAk6cI-19" value="RenovationRecommendation" style="swimlane;whiteSpace=wrap;html=1;fillColor=#e1d5e7;strokeColor=#9673a6;" parent="1" vertex="1">
          <mxGeometry x="40" y="190" width="200" height="140" as="geometry">
            <mxRectangle x="40" y="190" width="200" height="30" as="alternateBounds" />
          </mxGeometry>
        </mxCell>
        <mxCell id="oFTy_eE11pHR6PuAk6cI-25" value="+ Id: int&lt;div&gt;+ Date: DateTime&lt;/div&gt;&lt;div&gt;&lt;span style=&quot;background-color: initial;&quot;&gt;+ Comment: string&lt;/span&gt;&lt;br&gt;&lt;/div&gt;&lt;div&gt;&lt;span style=&quot;background-color: initial;&quot;&gt;+ Level: RecommendationLevel&lt;/span&gt;&lt;/div&gt;" style="text;html=1;align=left;verticalAlign=middle;whiteSpace=wrap;rounded=0;" parent="oFTy_eE11pHR6PuAk6cI-19" vertex="1">
          <mxGeometry x="10" y="30" width="180" height="90" as="geometry" />
        </mxCell>
        <mxCell id="yB7MZX--S5__9EGFR-4e-36" style="edgeStyle=orthogonalEdgeStyle;rounded=0;orthogonalLoop=1;jettySize=auto;html=1;entryX=1;entryY=0.5;entryDx=0;entryDy=0;fillColor=#f8cecc;strokeColor=#b85450;dashed=1;startArrow=classic;startFill=1;endArrow=none;endFill=0;" parent="1" source="oFTy_eE11pHR6PuAk6cI-20" target="yB7MZX--S5__9EGFR-4e-19" edge="1">
          <mxGeometry relative="1" as="geometry">
            <Array as="points">
              <mxPoint x="580" y="260" />
              <mxPoint x="580" y="170" />
              <mxPoint x="480" y="170" />
            </Array>
          </mxGeometry>
        </mxCell>
        <mxCell id="yB7MZX--S5__9EGFR-4e-75" style="edgeStyle=orthogonalEdgeStyle;rounded=0;orthogonalLoop=1;jettySize=auto;html=1;exitX=1;exitY=0.5;exitDx=0;exitDy=0;entryX=0;entryY=0.5;entryDx=0;entryDy=0;fillColor=#dae8fc;strokeColor=#6c8ebf;" parent="1" source="oFTy_eE11pHR6PuAk6cI-20" target="yB7MZX--S5__9EGFR-4e-61" edge="1">
          <mxGeometry relative="1" as="geometry" />
        </mxCell>
        <mxCell id="yB7MZX--S5__9EGFR-4e-100" style="edgeStyle=orthogonalEdgeStyle;rounded=0;orthogonalLoop=1;jettySize=auto;html=1;exitX=0.75;exitY=1;exitDx=0;exitDy=0;entryX=0;entryY=0.25;entryDx=0;entryDy=0;fillColor=#dae8fc;strokeColor=#6c8ebf;" parent="1" source="oFTy_eE11pHR6PuAk6cI-20" target="yB7MZX--S5__9EGFR-4e-69" edge="1">
          <mxGeometry relative="1" as="geometry" />
        </mxCell>
        <mxCell id="oFTy_eE11pHR6PuAk6cI-20" value="GuestRate" style="swimlane;whiteSpace=wrap;html=1;fillColor=#e1d5e7;strokeColor=#9673a6;" parent="1" vertex="1">
          <mxGeometry x="680" y="190" width="205" height="110" as="geometry" />
        </mxCell>
        <mxCell id="oFTy_eE11pHR6PuAk6cI-29" value="&lt;div&gt;&lt;br&gt;&lt;/div&gt;&lt;div&gt;+ Cleanliness: int&lt;/div&gt;&lt;div&gt;+ RulesFollowing:int&lt;/div&gt;&lt;div&gt;+ AdditionalComment: string&lt;/div&gt;" style="text;html=1;align=left;verticalAlign=middle;whiteSpace=wrap;rounded=0;" parent="oFTy_eE11pHR6PuAk6cI-20" vertex="1">
          <mxGeometry x="12.5" y="32.5" width="180" height="50" as="geometry" />
        </mxCell>
        <mxCell id="yB7MZX--S5__9EGFR-4e-49" style="edgeStyle=orthogonalEdgeStyle;rounded=0;orthogonalLoop=1;jettySize=auto;html=1;exitX=0.5;exitY=1;exitDx=0;exitDy=0;entryX=0.727;entryY=-0.02;entryDx=0;entryDy=0;fillColor=#d5e8d4;strokeColor=#82b366;entryPerimeter=0;" parent="1" source="oFTy_eE11pHR6PuAk6cI-21" target="oFTy_eE11pHR6PuAk6cI-17" edge="1">
          <mxGeometry relative="1" as="geometry" />
        </mxCell>
        <mxCell id="yB7MZX--S5__9EGFR-4e-50" style="edgeStyle=orthogonalEdgeStyle;rounded=0;orthogonalLoop=1;jettySize=auto;html=1;exitX=0.5;exitY=0;exitDx=0;exitDy=0;entryX=0.5;entryY=1;entryDx=0;entryDy=0;fillColor=#dae8fc;strokeColor=#6c8ebf;endArrow=none;endFill=0;startArrow=classic;startFill=1;" parent="1" source="oFTy_eE11pHR6PuAk6cI-21" target="yB7MZX--S5__9EGFR-4e-19" edge="1">
          <mxGeometry relative="1" as="geometry">
            <mxPoint x="410" y="280" as="targetPoint" />
            <Array as="points">
              <mxPoint x="620" y="300" />
              <mxPoint x="380" y="300" />
            </Array>
          </mxGeometry>
        </mxCell>
        <mxCell id="yB7MZX--S5__9EGFR-4e-60" style="edgeStyle=orthogonalEdgeStyle;rounded=0;orthogonalLoop=1;jettySize=auto;html=1;exitX=1;exitY=0.5;exitDx=0;exitDy=0;fillColor=#dae8fc;strokeColor=#6c8ebf;endArrow=none;endFill=0;startArrow=classic;startFill=1;entryX=0.5;entryY=1;entryDx=0;entryDy=0;" parent="1" source="oFTy_eE11pHR6PuAk6cI-21" target="oFTy_eE11pHR6PuAk6cI-20" edge="1">
          <mxGeometry relative="1" as="geometry">
            <mxPoint x="800" y="330" as="targetPoint" />
          </mxGeometry>
        </mxCell>
        <mxCell id="oFTy_eE11pHR6PuAk6cI-21" value="Guest" style="swimlane;whiteSpace=wrap;html=1;fillColor=#e1d5e7;strokeColor=#9673a6;" parent="1" vertex="1">
          <mxGeometry x="500" y="340" width="240" height="210" as="geometry" />
        </mxCell>
        <mxCell id="oFTy_eE11pHR6PuAk6cI-24" value="+ YearlyReservations: int&lt;div&gt;+ StartDate: DateTime&lt;/div&gt;&lt;div&gt;+ EndDate: DateTime&lt;/div&gt;&lt;div&gt;+ BonusPoints: int&lt;/div&gt;&lt;div&gt;+ IsSuperGuest: bool&lt;/div&gt;" style="text;html=1;align=left;verticalAlign=middle;whiteSpace=wrap;rounded=0;" parent="oFTy_eE11pHR6PuAk6cI-21" vertex="1">
          <mxGeometry x="10" y="40" width="180" height="70" as="geometry" />
        </mxCell>
        <mxCell id="AIQx7HWADuL0nwLdgpcf-7" value="" style="endArrow=none;html=1;rounded=0;" parent="oFTy_eE11pHR6PuAk6cI-21" edge="1">
          <mxGeometry width="50" height="50" relative="1" as="geometry">
            <mxPoint y="120" as="sourcePoint" />
            <mxPoint x="240" y="120" as="targetPoint" />
          </mxGeometry>
        </mxCell>
        <mxCell id="yB7MZX--S5__9EGFR-4e-4" value="+ CalculateGuestStats(guest: Guest): void&lt;div&gt;&lt;div&gt;&lt;span style=&quot;background-color: initial;&quot;&gt;- BecomeSuperGuest(guest: Guest): void&lt;/span&gt;&lt;br&gt;&lt;/div&gt;&lt;div&gt;&lt;span style=&quot;background-color: initial;&quot;&gt;- ActivateSuperGuest(guest: Guest): void&lt;/span&gt;&lt;/div&gt;&lt;div&gt;&lt;span style=&quot;background-color: initial;&quot;&gt;- DeactivateSuperGuest(guest: Guest): void&lt;/span&gt;&lt;/div&gt;&lt;div&gt;- CheckDueDate(guest: Guest): void&lt;/div&gt;&lt;/div&gt;" style="text;html=1;align=left;verticalAlign=middle;whiteSpace=wrap;rounded=0;" parent="oFTy_eE11pHR6PuAk6cI-21" vertex="1">
          <mxGeometry y="130" width="240" height="80" as="geometry" />
        </mxCell>
        <mxCell id="oFTy_eE11pHR6PuAk6cI-27" value="RecommendationLevel" style="swimlane;whiteSpace=wrap;html=1;fillColor=#fad7ac;strokeColor=#b46504;" parent="1" vertex="1">
          <mxGeometry x="720" y="40" width="140" height="110" as="geometry" />
        </mxCell>
        <mxCell id="oFTy_eE11pHR6PuAk6cI-28" value="&lt;ul&gt;&lt;li&gt;Level1&lt;/li&gt;&lt;li&gt;Level2&lt;/li&gt;&lt;li&gt;Level3&lt;/li&gt;&lt;li&gt;Level4&lt;/li&gt;&lt;li&gt;Level5&lt;/li&gt;&lt;/ul&gt;" style="text;html=1;align=left;verticalAlign=middle;whiteSpace=wrap;rounded=0;" parent="oFTy_eE11pHR6PuAk6cI-27" vertex="1">
          <mxGeometry x="-10" y="33" width="120" height="70" as="geometry" />
        </mxCell>
        <mxCell id="yB7MZX--S5__9EGFR-4e-19" value="AccommodationRate" style="swimlane;whiteSpace=wrap;html=1;fillColor=#e1d5e7;strokeColor=#9673a6;" parent="1" vertex="1">
          <mxGeometry x="280" y="40" width="200" height="160" as="geometry">
            <mxRectangle x="280" y="40" width="150" height="30" as="alternateBounds" />
          </mxGeometry>
        </mxCell>
        <mxCell id="yB7MZX--S5__9EGFR-4e-20" value="&lt;div&gt;+ Cleanliness: int&lt;/div&gt;&lt;div&gt;+ Correctness: int&lt;/div&gt;&lt;div&gt;+ Comment: string&lt;/div&gt;&lt;div&gt;+ Images: List&amp;lt;int&amp;gt;&lt;/div&gt;" style="text;html=1;align=left;verticalAlign=middle;whiteSpace=wrap;rounded=0;" parent="yB7MZX--S5__9EGFR-4e-19" vertex="1">
          <mxGeometry x="10" y="30" width="180" height="90" as="geometry" />
        </mxCell>
        <mxCell id="AIQx7HWADuL0nwLdgpcf-8" value="" style="endArrow=none;html=1;rounded=0;" parent="yB7MZX--S5__9EGFR-4e-19" edge="1">
          <mxGeometry width="50" height="50" relative="1" as="geometry">
            <mxPoint x="-2.5" y="120" as="sourcePoint" />
            <mxPoint x="202.5" y="120" as="targetPoint" />
          </mxGeometry>
        </mxCell>
        <mxCell id="yB7MZX--S5__9EGFR-4e-3" value="&lt;div&gt;- IsHostRated(rate: GuestRate): bool&lt;/div&gt;&lt;div&gt;&lt;br&gt;&lt;/div&gt;" style="text;html=1;align=left;verticalAlign=middle;whiteSpace=wrap;rounded=0;" parent="yB7MZX--S5__9EGFR-4e-19" vertex="1">
          <mxGeometry y="140" width="200" height="10" as="geometry" />
        </mxCell>
        <mxCell id="yB7MZX--S5__9EGFR-4e-38" value="&lt;font color=&quot;#cc0000&quot;&gt;&amp;lt;&amp;lt;use&amp;gt;&amp;gt;&lt;/font&gt;" style="text;html=1;align=center;verticalAlign=middle;whiteSpace=wrap;rounded=0;" parent="1" vertex="1">
          <mxGeometry x="500" y="145" width="60" height="30" as="geometry" />
        </mxCell>
        <mxCell id="yB7MZX--S5__9EGFR-4e-39" value="" style="group;" parent="1" vertex="1" connectable="0">
          <mxGeometry x="1190.01" y="40" width="170" height="70" as="geometry" />
        </mxCell>
        <mxCell id="yB7MZX--S5__9EGFR-4e-7" value="" style="rounded=0;whiteSpace=wrap;html=1;fillColor=#EDF5FC;strokeColor=#6c8ebf;gradientColor=#D3E0E0;" parent="yB7MZX--S5__9EGFR-4e-39" vertex="1">
          <mxGeometry width="170" height="70" as="geometry" />
        </mxCell>
        <mxCell id="yB7MZX--S5__9EGFR-4e-10" value="" style="endArrow=classic;html=1;rounded=0;fillColor=#d5e8d4;strokeColor=#82b366;" parent="yB7MZX--S5__9EGFR-4e-39" edge="1">
          <mxGeometry width="50" height="50" relative="1" as="geometry">
            <mxPoint x="10.625" y="14" as="sourcePoint" />
            <mxPoint x="67.29166666666667" y="14" as="targetPoint" />
          </mxGeometry>
        </mxCell>
        <mxCell id="yB7MZX--S5__9EGFR-4e-11" value="" style="endArrow=none;html=1;rounded=0;fillColor=#dae8fc;strokeColor=#6c8ebf;endFill=0;" parent="yB7MZX--S5__9EGFR-4e-39" edge="1">
          <mxGeometry width="50" height="50" relative="1" as="geometry">
            <mxPoint x="10.625" y="35" as="sourcePoint" />
            <mxPoint x="67.29166666666667" y="35" as="targetPoint" />
          </mxGeometry>
        </mxCell>
        <mxCell id="yB7MZX--S5__9EGFR-4e-12" value="" style="endArrow=classic;html=1;rounded=0;fillColor=#f8cecc;strokeColor=#b85450;dashed=1;" parent="yB7MZX--S5__9EGFR-4e-39" edge="1">
          <mxGeometry width="50" height="50" relative="1" as="geometry">
            <mxPoint x="10.625" y="56" as="sourcePoint" />
            <mxPoint x="67.29166666666667" y="56" as="targetPoint" />
          </mxGeometry>
        </mxCell>
        <mxCell id="yB7MZX--S5__9EGFR-4e-14" value="Generalizacija" style="text;html=1;align=center;verticalAlign=middle;whiteSpace=wrap;rounded=0;" parent="yB7MZX--S5__9EGFR-4e-39" vertex="1">
          <mxGeometry x="74.375" y="7" width="85" height="14" as="geometry" />
        </mxCell>
        <mxCell id="yB7MZX--S5__9EGFR-4e-15" value="Asocijacija" style="text;html=1;align=center;verticalAlign=middle;whiteSpace=wrap;rounded=0;" parent="yB7MZX--S5__9EGFR-4e-39" vertex="1">
          <mxGeometry x="74.375" y="28" width="85" height="14" as="geometry" />
        </mxCell>
        <mxCell id="yB7MZX--S5__9EGFR-4e-16" value="Zavisnost" style="text;html=1;align=center;verticalAlign=middle;whiteSpace=wrap;rounded=0;" parent="yB7MZX--S5__9EGFR-4e-39" vertex="1">
          <mxGeometry x="74.375" y="49" width="85" height="14" as="geometry" />
        </mxCell>
        <mxCell id="yB7MZX--S5__9EGFR-4e-44" value="&lt;font color=&quot;#6a8cbd&quot;&gt;0.. 1&lt;/font&gt;" style="text;html=1;align=center;verticalAlign=middle;whiteSpace=wrap;rounded=0;" parent="1" vertex="1">
          <mxGeometry x="150" y="175" width="30" height="15" as="geometry" />
        </mxCell>
        <mxCell id="yB7MZX--S5__9EGFR-4e-45" value="&lt;font color=&quot;#6a8cbd&quot;&gt;1&lt;/font&gt;" style="text;html=1;align=center;verticalAlign=middle;whiteSpace=wrap;rounded=0;" parent="1" vertex="1">
          <mxGeometry x="250" y="102" width="25" height="15" as="geometry" />
        </mxCell>
        <mxCell id="yB7MZX--S5__9EGFR-4e-46" value="&amp;lt;&amp;lt;enum&amp;gt;&amp;gt;" style="text;html=1;align=center;verticalAlign=middle;whiteSpace=wrap;rounded=0;" parent="1" vertex="1">
          <mxGeometry x="760" y="17" width="60" height="30" as="geometry" />
        </mxCell>
        <mxCell id="yB7MZX--S5__9EGFR-4e-47" value="&amp;lt;&amp;lt;enum&amp;gt;&amp;gt;" style="text;html=1;align=center;verticalAlign=middle;whiteSpace=wrap;rounded=0;" parent="1" vertex="1">
          <mxGeometry x="610" y="17" width="60" height="30" as="geometry" />
        </mxCell>
        <mxCell id="yB7MZX--S5__9EGFR-4e-58" style="edgeStyle=orthogonalEdgeStyle;rounded=0;orthogonalLoop=1;jettySize=auto;html=1;exitX=0.5;exitY=1;exitDx=0;exitDy=0;entryX=0.5;entryY=0;entryDx=0;entryDy=0;fillColor=#d5e8d4;strokeColor=#82b366;" parent="1" source="yB7MZX--S5__9EGFR-4e-51" target="oFTy_eE11pHR6PuAk6cI-17" edge="1">
          <mxGeometry relative="1" as="geometry">
            <Array as="points">
              <mxPoint x="315" y="590" />
              <mxPoint x="520" y="590" />
            </Array>
          </mxGeometry>
        </mxCell>
        <mxCell id="yB7MZX--S5__9EGFR-4e-59" style="edgeStyle=orthogonalEdgeStyle;rounded=0;orthogonalLoop=1;jettySize=auto;html=1;exitX=0.5;exitY=0;exitDx=0;exitDy=0;fillColor=#dae8fc;strokeColor=#6c8ebf;endArrow=none;endFill=0;startArrow=classic;startFill=1;" parent="1" source="yB7MZX--S5__9EGFR-4e-51" edge="1">
          <mxGeometry relative="1" as="geometry">
            <mxPoint x="420" y="200" as="targetPoint" />
            <Array as="points">
              <mxPoint x="315" y="280" />
              <mxPoint x="350" y="280" />
              <mxPoint x="350" y="200" />
            </Array>
          </mxGeometry>
        </mxCell>
        <mxCell id="yB7MZX--S5__9EGFR-4e-51" value="Host" style="swimlane;whiteSpace=wrap;html=1;fillColor=#dae8fc;strokeColor=#6c8ebf;" parent="1" vertex="1">
          <mxGeometry x="200" y="390" width="230" height="130" as="geometry" />
        </mxCell>
        <mxCell id="yB7MZX--S5__9EGFR-4e-52" value="+ YearlyReservations: int&lt;div&gt;+ Search: string&lt;/div&gt;&lt;div&gt;+ RateCount: int&lt;/div&gt;&lt;div&gt;+ RateAverage: double&lt;/div&gt;&lt;div&gt;+ IsSuperHost: bool&lt;/div&gt;" style="text;html=1;align=left;verticalAlign=middle;whiteSpace=wrap;rounded=0;" parent="yB7MZX--S5__9EGFR-4e-51" vertex="1">
          <mxGeometry x="10" y="40" width="180" height="70" as="geometry" />
        </mxCell>
        <mxCell id="yB7MZX--S5__9EGFR-4e-74" style="edgeStyle=orthogonalEdgeStyle;rounded=0;orthogonalLoop=1;jettySize=auto;html=1;exitX=0.25;exitY=1;exitDx=0;exitDy=0;entryX=1;entryY=0.5;entryDx=0;entryDy=0;fillColor=#dae8fc;strokeColor=#6c8ebf;" parent="1" source="yB7MZX--S5__9EGFR-4e-61" target="yB7MZX--S5__9EGFR-4e-4" edge="1">
          <mxGeometry relative="1" as="geometry" />
        </mxCell>
        <mxCell id="yB7MZX--S5__9EGFR-4e-77" style="edgeStyle=orthogonalEdgeStyle;rounded=0;orthogonalLoop=1;jettySize=auto;html=1;exitX=0.5;exitY=0;exitDx=0;exitDy=0;entryX=0.5;entryY=0;entryDx=0;entryDy=0;fillColor=#dae8fc;strokeColor=#6c8ebf;endArrow=none;endFill=0;startArrow=classic;startFill=1;" parent="1" source="yB7MZX--S5__9EGFR-4e-61" target="yB7MZX--S5__9EGFR-4e-19" edge="1">
          <mxGeometry relative="1" as="geometry">
            <Array as="points">
              <mxPoint x="1140" y="10" />
              <mxPoint x="380" y="10" />
            </Array>
          </mxGeometry>
        </mxCell>
        <mxCell id="yB7MZX--S5__9EGFR-4e-61" value="AccommodationReservation" style="swimlane;whiteSpace=wrap;html=1;fillColor=#dae8fc;strokeColor=#6c8ebf;" parent="1" vertex="1">
          <mxGeometry x="1020" y="260" width="240" height="200" as="geometry">
            <mxRectangle x="280" y="40" width="150" height="30" as="alternateBounds" />
          </mxGeometry>
        </mxCell>
        <mxCell id="yB7MZX--S5__9EGFR-4e-62" value="+ Id: int&lt;div&gt;+ StartDate: DateTime&lt;/div&gt;&lt;div&gt;+ EndDate: DateTime&lt;/div&gt;&lt;div&gt;+ NumberOfPeople: int&lt;/div&gt;&lt;div&gt;+ Name: string&lt;/div&gt;&lt;div&gt;+ City: string&lt;/div&gt;&lt;div&gt;+ Country: string&lt;/div&gt;" style="text;html=1;align=left;verticalAlign=middle;whiteSpace=wrap;rounded=0;" parent="yB7MZX--S5__9EGFR-4e-61" vertex="1">
          <mxGeometry x="10" y="40" width="180" height="90" as="geometry" />
        </mxCell>
        <mxCell id="yB7MZX--S5__9EGFR-4e-67" value="" style="endArrow=none;html=1;rounded=0;" parent="yB7MZX--S5__9EGFR-4e-61" edge="1">
          <mxGeometry width="50" height="50" relative="1" as="geometry">
            <mxPoint y="150" as="sourcePoint" />
            <mxPoint x="240" y="150" as="targetPoint" />
          </mxGeometry>
        </mxCell>
        <mxCell id="yB7MZX--S5__9EGFR-4e-68" value="&lt;span style=&quot;text-align: left;&quot;&gt;+ GetYearlyReservations(guest: Guest): int&lt;/span&gt;" style="text;html=1;align=center;verticalAlign=middle;whiteSpace=wrap;rounded=0;" parent="yB7MZX--S5__9EGFR-4e-61" vertex="1">
          <mxGeometry x="5" y="170" width="230" height="20" as="geometry" />
        </mxCell>
        <mxCell id="yB7MZX--S5__9EGFR-4e-78" style="edgeStyle=orthogonalEdgeStyle;rounded=0;orthogonalLoop=1;jettySize=auto;html=1;exitX=0.5;exitY=1;exitDx=0;exitDy=0;fillColor=#dae8fc;strokeColor=#6c8ebf;startArrow=classic;startFill=1;endArrow=none;endFill=0;" parent="1" source="yB7MZX--S5__9EGFR-4e-69" edge="1">
          <mxGeometry relative="1" as="geometry">
            <mxPoint x="120" y="330" as="targetPoint" />
          </mxGeometry>
        </mxCell>
        <mxCell id="yB7MZX--S5__9EGFR-4e-69" value="Accommodation" style="swimlane;whiteSpace=wrap;html=1;fillColor=#dae8fc;strokeColor=#6c8ebf;" parent="1" vertex="1">
          <mxGeometry x="960" y="590" width="280" height="230" as="geometry">
            <mxRectangle x="280" y="40" width="150" height="30" as="alternateBounds" />
          </mxGeometry>
        </mxCell>
        <mxCell id="yB7MZX--S5__9EGFR-4e-70" value="+ Id: int&lt;div&gt;+ ReservationDaysLimit: int&lt;/div&gt;&lt;div&gt;+ MinReservationDays: int&lt;/div&gt;&lt;div&gt;+ MaxGuestNumber: int&lt;/div&gt;&lt;div&gt;+ Name: string&lt;/div&gt;&lt;div&gt;+ City: string&lt;/div&gt;&lt;div&gt;+ Country: string&lt;/div&gt;&lt;div&gt;+ Type: AccommodationType&lt;/div&gt;&lt;div&gt;+ Pictures: List&amp;lt;string&amp;gt;&lt;/div&gt;&lt;div&gt;+ UnavailableDates: List&amp;lt;CalendarDateRange&amp;gt;&lt;/div&gt;" style="text;html=1;align=left;verticalAlign=middle;whiteSpace=wrap;rounded=0;" parent="yB7MZX--S5__9EGFR-4e-69" vertex="1">
          <mxGeometry x="10" y="20" width="270" height="190" as="geometry" />
        </mxCell>
        <mxCell id="yB7MZX--S5__9EGFR-4e-73" style="edgeStyle=orthogonalEdgeStyle;rounded=0;orthogonalLoop=1;jettySize=auto;html=1;exitX=0.5;exitY=1;exitDx=0;exitDy=0;entryX=0.633;entryY=-0.007;entryDx=0;entryDy=0;entryPerimeter=0;fillColor=#dae8fc;strokeColor=#6c8ebf;" parent="1" source="yB7MZX--S5__9EGFR-4e-61" target="yB7MZX--S5__9EGFR-4e-69" edge="1">
          <mxGeometry relative="1" as="geometry">
            <Array as="points">
              <mxPoint x="1137" y="460" />
            </Array>
          </mxGeometry>
        </mxCell>
        <mxCell id="yB7MZX--S5__9EGFR-4e-80" style="edgeStyle=orthogonalEdgeStyle;rounded=0;orthogonalLoop=1;jettySize=auto;html=1;entryX=0.25;entryY=1;entryDx=0;entryDy=0;fillColor=#dae8fc;strokeColor=#6c8ebf;" parent="1" target="yB7MZX--S5__9EGFR-4e-51" edge="1">
          <mxGeometry relative="1" as="geometry">
            <mxPoint x="960" y="750" as="sourcePoint" />
            <Array as="points">
              <mxPoint x="258" y="750" />
            </Array>
          </mxGeometry>
        </mxCell>
        <mxCell id="yB7MZX--S5__9EGFR-4e-81" value="AccommodationType" style="swimlane;whiteSpace=wrap;html=1;fillColor=#fad7ac;strokeColor=#b46504;" parent="1" vertex="1">
          <mxGeometry x="880" y="40" width="140" height="110" as="geometry" />
        </mxCell>
        <mxCell id="yB7MZX--S5__9EGFR-4e-82" value="&lt;ul&gt;&lt;li&gt;Apartment&lt;/li&gt;&lt;li&gt;House&lt;/li&gt;&lt;li&gt;Cottage&lt;/li&gt;&lt;/ul&gt;" style="text;html=1;align=left;verticalAlign=middle;whiteSpace=wrap;rounded=0;" parent="yB7MZX--S5__9EGFR-4e-81" vertex="1">
          <mxGeometry x="-10" y="33" width="120" height="70" as="geometry" />
        </mxCell>
        <mxCell id="yB7MZX--S5__9EGFR-4e-83" value="&amp;lt;&amp;lt;enum&amp;gt;&amp;gt;" style="text;html=1;align=center;verticalAlign=middle;whiteSpace=wrap;rounded=0;" parent="1" vertex="1">
          <mxGeometry x="920" y="17" width="60" height="30" as="geometry" />
        </mxCell>
        <mxCell id="yB7MZX--S5__9EGFR-4e-84" value="&lt;font color=&quot;#6a8cbd&quot;&gt;1&lt;/font&gt;" style="text;html=1;align=center;verticalAlign=middle;whiteSpace=wrap;rounded=0;" parent="1" vertex="1">
          <mxGeometry x="280" y="370" width="25" height="15" as="geometry" />
        </mxCell>
        <mxCell id="yB7MZX--S5__9EGFR-4e-85" value="&lt;font color=&quot;#6a8cbd&quot;&gt;1&lt;/font&gt;" style="text;html=1;align=center;verticalAlign=middle;whiteSpace=wrap;rounded=0;" parent="1" vertex="1">
          <mxGeometry x="585" y="315" width="25" height="15" as="geometry" />
        </mxCell>
        <mxCell id="yB7MZX--S5__9EGFR-4e-86" value="&lt;font color=&quot;#6a8cbd&quot;&gt;1&lt;/font&gt;" style="text;html=1;align=center;verticalAlign=middle;whiteSpace=wrap;rounded=0;" parent="1" vertex="1">
          <mxGeometry x="1070" y="820" width="25" height="15" as="geometry" />
        </mxCell>
        <mxCell id="yB7MZX--S5__9EGFR-4e-87" value="&lt;font color=&quot;#6a8cbd&quot;&gt;1&lt;/font&gt;" style="text;html=1;align=center;verticalAlign=middle;whiteSpace=wrap;rounded=0;" parent="1" vertex="1">
          <mxGeometry x="1300" y="370" width="25" height="15" as="geometry" />
        </mxCell>
        <mxCell id="yB7MZX--S5__9EGFR-4e-88" value="&lt;font color=&quot;#6a8cbd&quot;&gt;1&lt;/font&gt;" style="text;html=1;align=center;verticalAlign=middle;whiteSpace=wrap;rounded=0;" parent="1" vertex="1">
          <mxGeometry x="225" y="530" width="25" height="15" as="geometry" />
        </mxCell>
        <mxCell id="yB7MZX--S5__9EGFR-4e-89" value="&lt;font color=&quot;#6a8cbd&quot;&gt;1&lt;/font&gt;" style="text;html=1;align=center;verticalAlign=middle;whiteSpace=wrap;rounded=0;" parent="1" vertex="1">
          <mxGeometry x="700" y="490" width="25" height="15" as="geometry" />
        </mxCell>
        <mxCell id="yB7MZX--S5__9EGFR-4e-90" value="&lt;font color=&quot;#6a8cbd&quot;&gt;1&lt;/font&gt;" style="text;html=1;align=center;verticalAlign=middle;whiteSpace=wrap;rounded=0;" parent="1" vertex="1">
          <mxGeometry x="1150" y="570" width="25" height="15" as="geometry" />
        </mxCell>
        <mxCell id="yB7MZX--S5__9EGFR-4e-91" value="&lt;font color=&quot;#6a8cbd&quot;&gt;1&lt;/font&gt;" style="text;html=1;align=center;verticalAlign=middle;whiteSpace=wrap;rounded=0;" parent="1" vertex="1">
          <mxGeometry x="750" y="447.5" width="25" height="15" as="geometry" />
        </mxCell>
        <mxCell id="yB7MZX--S5__9EGFR-4e-92" value="&lt;font color=&quot;#6a8cbd&quot;&gt;1&lt;/font&gt;" style="text;html=1;align=center;verticalAlign=middle;whiteSpace=wrap;rounded=0;" parent="1" vertex="1">
          <mxGeometry x="995" y="370" width="25" height="15" as="geometry" />
        </mxCell>
        <mxCell id="yB7MZX--S5__9EGFR-4e-93" value="&lt;font color=&quot;#6a8cbd&quot;&gt;0..&amp;nbsp;&lt;/font&gt;" style="text;html=1;align=center;verticalAlign=middle;whiteSpace=wrap;rounded=0;" parent="1" vertex="1">
          <mxGeometry x="320" y="200" width="30" height="15" as="geometry" />
        </mxCell>
        <mxCell id="yB7MZX--S5__9EGFR-4e-94" value="&lt;font color=&quot;#6a8cbd&quot;&gt;0..&amp;nbsp;&lt;/font&gt;" style="text;html=1;align=center;verticalAlign=middle;whiteSpace=wrap;rounded=0;" parent="1" vertex="1">
          <mxGeometry x="380" y="200" width="30" height="15" as="geometry" />
        </mxCell>
        <mxCell id="yB7MZX--S5__9EGFR-4e-95" value="&lt;font color=&quot;#6a8cbd&quot;&gt;0..&amp;nbsp;&lt;/font&gt;" style="text;html=1;align=center;verticalAlign=middle;whiteSpace=wrap;rounded=0;" parent="1" vertex="1">
          <mxGeometry x="120" y="330" width="30" height="15" as="geometry" />
        </mxCell>
        <mxCell id="yB7MZX--S5__9EGFR-4e-96" value="&lt;font color=&quot;#6a8cbd&quot;&gt;1&lt;/font&gt;" style="text;html=1;align=center;verticalAlign=middle;whiteSpace=wrap;rounded=0;" parent="1" vertex="1">
          <mxGeometry x="60" y="330" width="30" height="15" as="geometry" />
        </mxCell>
        <mxCell id="yB7MZX--S5__9EGFR-4e-97" value="&lt;font color=&quot;#6a8cbd&quot;&gt;1..&lt;/font&gt;" style="text;html=1;align=center;verticalAlign=middle;whiteSpace=wrap;rounded=0;" parent="1" vertex="1">
          <mxGeometry x="930" y="730" width="30" height="15" as="geometry" />
        </mxCell>
        <mxCell id="yB7MZX--S5__9EGFR-4e-98" value="&lt;font color=&quot;#6a8cbd&quot;&gt;0..&amp;nbsp;&lt;/font&gt;" style="text;html=1;align=center;verticalAlign=middle;whiteSpace=wrap;rounded=0;" parent="1" vertex="1">
          <mxGeometry x="785" y="315" width="30" height="15" as="geometry" />
        </mxCell>
        <mxCell id="yB7MZX--S5__9EGFR-4e-99" value="&lt;font color=&quot;#6a8cbd&quot;&gt;1&lt;/font&gt;" style="text;html=1;align=center;verticalAlign=middle;whiteSpace=wrap;rounded=0;" parent="1" vertex="1">
          <mxGeometry x="890" y="230" width="30" height="15" as="geometry" />
        </mxCell>
        <mxCell id="yB7MZX--S5__9EGFR-4e-101" value="&lt;font color=&quot;#6a8cbd&quot;&gt;1&lt;/font&gt;" style="text;html=1;align=center;verticalAlign=middle;whiteSpace=wrap;rounded=0;" parent="1" vertex="1">
          <mxGeometry x="930" y="652.5" width="25" height="15" as="geometry" />
        </mxCell>
        <mxCell id="yB7MZX--S5__9EGFR-4e-102" value="&lt;font color=&quot;#6a8cbd&quot;&gt;0..&amp;nbsp;&lt;/font&gt;" style="text;html=1;align=center;verticalAlign=middle;whiteSpace=wrap;rounded=0;" parent="1" vertex="1">
          <mxGeometry x="840" y="315" width="30" height="15" as="geometry" />
        </mxCell>
        <mxCell id="yB7MZX--S5__9EGFR-4e-103" value="&lt;font color=&quot;#6a8cbd&quot;&gt;0..&amp;nbsp;&lt;/font&gt;" style="text;html=1;align=center;verticalAlign=middle;whiteSpace=wrap;rounded=0;" parent="1" vertex="1">
          <mxGeometry x="1145" y="462.5" width="30" height="15" as="geometry" />
        </mxCell>
        <mxCell id="yB7MZX--S5__9EGFR-4e-104" value="&lt;font color=&quot;#6a8cbd&quot;&gt;1&lt;/font&gt;" style="text;html=1;align=center;verticalAlign=middle;whiteSpace=wrap;rounded=0;" parent="1" vertex="1">
          <mxGeometry x="1147.5" y="240" width="30" height="15" as="geometry" />
        </mxCell>
        <mxCell id="yB7MZX--S5__9EGFR-4e-105" value="&lt;font color=&quot;#6a8cbd&quot;&gt;1&lt;/font&gt;" style="text;html=1;align=center;verticalAlign=middle;whiteSpace=wrap;rounded=0;" parent="1" vertex="1">
          <mxGeometry x="390" y="17" width="30" height="15" as="geometry" />
        </mxCell>
        <mxCell id="yB7MZX--S5__9EGFR-4e-106" value="&lt;font color=&quot;#6a8cbd&quot;&gt;1&lt;/font&gt;" style="text;html=1;align=center;verticalAlign=middle;whiteSpace=wrap;rounded=0;" parent="1" vertex="1">
          <mxGeometry x="750" y="520" width="30" height="15" as="geometry" />
        </mxCell>
        <mxCell id="yB7MZX--S5__9EGFR-4e-107" value="&lt;font color=&quot;#6a8cbd&quot;&gt;0..&lt;/font&gt;" style="text;html=1;align=center;verticalAlign=middle;whiteSpace=wrap;rounded=0;" parent="1" vertex="1">
          <mxGeometry x="1080" y="462.5" width="30" height="15" as="geometry" />
        </mxCell>
        <mxCell id="yB7MZX--S5__9EGFR-4e-117" value="" style="group;" parent="1" vertex="1" connectable="0">
          <mxGeometry x="1170" y="120" width="210.01" height="70" as="geometry" />
        </mxCell>
        <mxCell id="yB7MZX--S5__9EGFR-4e-118" value="" style="rounded=0;whiteSpace=wrap;html=1;fillColor=#EDF5FC;strokeColor=#6c8ebf;gradientColor=#D3E0E0;" parent="yB7MZX--S5__9EGFR-4e-117" vertex="1">
          <mxGeometry width="210" height="70" as="geometry" />
        </mxCell>
        <mxCell id="yB7MZX--S5__9EGFR-4e-122" value="Enumeracije" style="text;html=1;align=center;verticalAlign=middle;whiteSpace=wrap;rounded=0;" parent="yB7MZX--S5__9EGFR-4e-117" vertex="1">
          <mxGeometry x="74.375" y="7" width="85" height="14" as="geometry" />
        </mxCell>
        <mxCell id="yB7MZX--S5__9EGFR-4e-123" value="Ključne klase za 3. KT" style="text;html=1;align=center;verticalAlign=middle;whiteSpace=wrap;rounded=0;" parent="yB7MZX--S5__9EGFR-4e-117" vertex="1">
          <mxGeometry x="74.38" y="28" width="135.63" height="14" as="geometry" />
        </mxCell>
        <mxCell id="yB7MZX--S5__9EGFR-4e-124" value="Ostale klase" style="text;html=1;align=center;verticalAlign=middle;whiteSpace=wrap;rounded=0;" parent="yB7MZX--S5__9EGFR-4e-117" vertex="1">
          <mxGeometry x="74.375" y="49" width="85" height="14" as="geometry" />
        </mxCell>
        <mxCell id="yB7MZX--S5__9EGFR-4e-125" value="" style="rounded=1;whiteSpace=wrap;html=1;fillColor=#ffe6cc;strokeColor=#d79b00;" parent="yB7MZX--S5__9EGFR-4e-117" vertex="1">
          <mxGeometry x="4.38" y="7" width="70" height="13" as="geometry" />
        </mxCell>
        <mxCell id="yB7MZX--S5__9EGFR-4e-126" value="" style="rounded=1;whiteSpace=wrap;html=1;fillColor=#e1d5e7;strokeColor=#9673a6;" parent="yB7MZX--S5__9EGFR-4e-117" vertex="1">
          <mxGeometry x="4.380000000000109" y="29" width="70" height="13" as="geometry" />
        </mxCell>
        <mxCell id="yB7MZX--S5__9EGFR-4e-127" value="" style="rounded=1;whiteSpace=wrap;html=1;fillColor=#dae8fc;strokeColor=#6c8ebf;" parent="yB7MZX--S5__9EGFR-4e-117" vertex="1">
          <mxGeometry x="4.380000000000109" y="50" width="70" height="13" as="geometry" />
        </mxCell>
        <mxCell id="yB7MZX--S5__9EGFR-4e-128" value="Legenda" style="text;html=1;align=center;verticalAlign=middle;whiteSpace=wrap;rounded=0;" parent="1" vertex="1">
          <mxGeometry x="1245.01" y="10" width="60" height="30" as="geometry" />
        </mxCell>
      </root>
    </mxGraphModel>
  </diagram>
</mxfile>
